Coordinates
version=1
nRows=7
nColumns=60
inDegrees=yes

Units are S.I. units (second, meters, Newtons, ...)
If the header above contains a line with 'inDegrees', this indicates whether rotational values are in degrees (yes) or radians (no).

endheader
time	pelvis_tilt	pelvis_list	pelvis_rotation	pelvis_tx	pelvis_ty	pelvis_tz	hip_flexion_r	hip_adduction_r	hip_rotation_r	knee_angle_r_beta	knee_angle_r	ankle_angle_r	subtalar_angle_r	mtp_angle_r	hip_flexion_l	hip_adduction_l	hip_rotation_l	knee_angle_l_beta	knee_angle_l	ankle_angle_l	subtalar_angle_l	mtp_angle_l	L5_S1_Flex_Ext	L5_S1_Lat_Bending	L5_S1_axial_rotation	L4_L5_Flex_Ext	L4_L5_Lat_Bending	L4_L5_axial_rotation	L3_L4_Flex_Ext	L3_L4_Lat_Bending	L3_L4_axial_rotation	L2_L3_Flex_Ext	L2_L3_Lat_Bending	L2_L3_axial_rotation	L1_L2_Flex_Ext	L1_L2_Lat_Bending	L1_L2_axial_rotation	L1_T12_Flex_Ext	L1_T12_Lat_Bending	L1_T12_axial_rotation	Abs_r3	Abs_r2	Abs_r1	Abs_t1	Abs_t2	arm_flex_r	arm_add_r	arm_rot_r	elbow_flex_r	pro_sup_r	wrist_flex_r	wrist_dev_r	arm_flex_l	arm_add_l	arm_rot_l	elbow_flex_l	pro_sup_l	wrist_flex_l	wrist_dev_l
      2.25000000	      1.00928920	     10.98738068	     93.50168053	      0.40278302	      0.94378859	      0.28444846	     -2.90934840	     -3.06660504	     -2.13646021	      0.24211326	    -13.87206807	      8.99549541	      0.00000000	      0.00000000	     -1.36000743	     -7.16993690	      0.29990726	      0.24691335	    -14.14709273	     10.56199214	      0.00000000	      0.00000000	     -7.11086822	      0.12111689	     -0.26972132	    -13.20559337	      0.16108547	     -0.28657891	    -11.68244540	      0.29448362	     -0.28657891	     -8.12701129	      0.29448362	     -0.23600616	     -6.60315223	      0.24698157	     -0.21914858	     -4.06315010	      0.18761007	     -0.20229099	    -50.79222060	      1.37009853	     -1.50010909	      0.00000000	      0.00000000	     19.37940046	    -27.24346896	     12.38778367	     80.20845140	     62.95249805	      6.93519800	     23.66700409	     21.77197969	    -25.83246839	     13.59804142	     73.32872209	     68.52946273	     14.28818300	      4.61363841
      2.26000000	      0.96673378	     11.46659706	     93.59065188	      0.40251003	      0.94452413	      0.28234988	     -3.78555644	     -3.07143382	     -2.27200819	      0.23583664	    -13.51244437	      8.96373987	      0.00000000	      0.00000000	     -2.11820248	     -7.16517120	      0.29724882	      0.24386114	    -13.97221407	     10.61716015	      0.00000000	      0.00000000	     -7.08247104	      0.11714463	     -0.28724604	    -13.15285697	      0.15580236	     -0.30519892	    -11.63579167	      0.28482546	     -0.30519892	     -8.09455615	      0.28482546	     -0.25134029	     -6.57678261	      0.23888133	     -0.23338741	     -4.04692395	      0.18145703	     -0.21543453	    -50.58938238	      1.32516350	     -1.59757631	      0.00000000	      0.00000000	     19.16023045	    -27.52488776	     12.20995764	     81.09724007	     62.55678074	      6.53672386	     24.20432166	     21.37556948	    -26.07121157	     13.42024704	     74.48094121	     67.99129902	     13.96105660	      5.06339946
      2.27000000	      0.93789428	     11.62717774	     93.66782015	      0.40221931	      0.94475243	      0.28030539	     -4.14867806	     -3.09465508	     -2.34598808	      0.23529845	    -13.48160806	      8.99989033	      0.00000000	      0.00000000	     -2.41781001	     -7.15490412	      0.24478262	      0.24402347	    -13.98151501	     10.64816101	      0.00000000	      0.00000000	     -6.97548399	      0.11603373	     -0.29587908	    -12.95417131	      0.15432486	     -0.31437152	    -11.46002264	      0.28212442	     -0.31437152	     -7.97228065	      0.28212442	     -0.25889419	     -6.47743443	      0.23661599	     -0.24040175	     -3.98579155	      0.17973625	     -0.22190931	    -49.82518457	      1.31259679	     -1.64559067	      0.00000000	      0.00000000	     19.07224346	    -27.72879930	     12.19916019	     81.27188920	     62.53387718	      6.51228701	     24.24667306	     21.21737414	    -26.08710655	     13.49710000	     74.75364087	     67.96264198	     13.95000125	      5.09127907
      2.28000000	      0.92450992	     11.87625713	     93.78309527	      0.40188571	      0.94504643	      0.27832815	     -4.81778157	     -3.08936862	     -2.66996361	      0.22657584	    -12.98183931	      9.09859764	      0.00000000	      0.00000000	     -2.87434297	     -7.16363977	      0.37510792	      0.24186942	    -13.85809704	     10.89147295	      0.00000000	      0.00000000	     -6.92379625	      0.11869602	     -0.31134961	    -12.85818201	      0.15786571	     -0.33080896	    -11.37510486	      0.28859751	     -0.33080896	     -7.91320673	      0.28859751	     -0.27243091	     -6.42943720	      0.24204493	     -0.25297156	     -3.95625718	      0.18386014	     -0.23351221	    -49.45598422	      1.34271314	     -1.73163311	      0.00000000	      0.00000000	     18.92145825	    -28.16719778	     12.17148075	     82.26579547	     62.07766361	      6.10736692	     24.89266459	     20.91157972	    -26.44287874	     13.58903654	     75.98603425	     67.35300813	     13.55958216	      5.58584233
      2.29000000	      0.90503054	     11.95002124	     93.90390057	      0.40156292	      0.94512607	      0.27639389	     -5.14218180	     -3.09913525	     -2.88093488	      0.22368433	    -12.81616791	      9.21186044	      0.00000000	      0.00000000	     -3.09625137	     -7.17109009	      0.22275409	      0.24038064	    -13.77279617	     10.98941175	      0.00000000	      0.00000000	     -6.82086006	      0.11825899	     -0.31977089	    -12.66701923	      0.15728445	     -0.33975657	    -11.20599100	      0.28753490	     -0.33975657	     -7.79556097	      0.28753490	     -0.27979953	     -6.33385066	      0.24115373	     -0.25981385	     -3.89743944	      0.18318317	     -0.23982817	    -48.72072136	      1.33776932	     -1.77846978	      0.00000000	      0.00000000	     18.87556793	    -28.43364673	     12.17582151	     82.52537775	     61.96486910	      5.99864350	     25.07925904	     20.86277651	    -26.45540359	     13.69523285	     76.45639869	     67.19807487	     13.44884852	      5.71482250
      2.30000000	      0.90481720	     12.08563099	     93.98708850	      0.40131324	      0.94525971	      0.27460687	     -5.50582427	     -3.08035751	     -3.04096674	      0.22099286	    -12.66195801	      9.30869389	      0.00000000	      0.00000000	     -3.35208284	     -7.19210873	      0.21978722	      0.24039603	    -13.77367785	     11.12481476	      0.00000000	      0.00000000	     -6.74121814	      0.12082159	     -0.32306630	    -12.51911622	      0.16069272	     -0.34325794	    -11.07514729	      0.29376562	     -0.34325794	     -7.70453822	      0.29376562	     -0.28268301	     -6.25989517	      0.24637939	     -0.26249137	     -3.85193205	      0.18715264	     -0.24229973	    -48.15184709	      1.36675800	     -1.79679785	      0.00000000	      0.00000000	     18.88311734	    -28.71815570	     12.11920304	     82.92943818	     61.80384094	      5.86567838	     25.32768552	     20.83990090	    -26.56519742	     13.80424756	     77.08516668	     66.97877526	     13.28895662	      5.88278765
      2.31000000	      0.90208181	     12.42514797	     94.05589239	      0.40116249	      0.94565423	      0.27297743	     -6.06294316	     -3.03878703	     -3.11514033	      0.21887908	    -12.54084744	      9.30377256	      0.00000000	      0.00000000	     -3.82942606	     -7.23662250	      0.21733340	      0.24031373	    -13.76896253	     11.20565737	      0.00000000	      0.00000000	     -6.70627874	      0.12412803	     -0.30897304	    -12.45423024	      0.16509029	     -0.32828386	    -11.01774534	      0.30180490	     -0.32828386	     -7.66460597	      0.30180490	     -0.27035141	     -6.22745044	      0.25312189	     -0.25104060	     -3.83196767	      0.19227432	     -0.23172978	    -47.90227840	      1.40416115	     -1.71841536	      0.00000000	      0.00000000	     18.99088059	    -28.97181099	     11.88037889	     83.62988164	     60.02408188	      4.06266983	     28.41112441	     21.08315267	    -26.68095542	     14.19974256	     77.99910757	     64.37512683	     10.58213228	      8.25535312
